<?xml version="1.0" encoding="UTF-8"?>
<!DOCTYPE svg PUBLIC "-//W3C//DTD SVG 1.1//EN" "http://www.w3.org/Graphics/SVG/1.1/DTD/svg11.dtd">
<!-- Creator: CorelDRAW 2017 -->
<svg xmlns="http://www.w3.org/2000/svg" xml:space="preserve" width="100%" height="100%" version="1.1" style="shape-rendering:geometricPrecision; text-rendering:geometricPrecision; image-rendering:optimizeQuality; fill-rule:evenodd; clip-rule:evenodd"
viewBox="0 0 90236.88 22018.2"
 xmlns:xlink="http://www.w3.org/1999/xlink">
 <defs>
  <style type="text/css">
   <![CDATA[
    .str0 {stroke:#FEFEFE;stroke-width:7.62;stroke-miterlimit:22.9256}
    .fil0 {fill:none}
    .fil1 {fill:#FEFEFE}
   ]]>
  </style>
 </defs>
 <g id="Capa_x0020_1">
  <metadata id="CorelCorpID_0Corel-Layer"/>
  <g>
   <path class="fil0 str0" d="M3.81 22014.39l90229.26 0 0 -22010.58c-1317.27,0 -2037,1582.33 -2812.56,2579 -473.41,635.06 -2291.45,2969.21 -2821.22,3570.81l-1109.08 1325.95c-61.24,75.95 -58.83,88.33 -134.82,169.57 -115.73,123.74 -153.68,170.49 -263.71,301.55l-1531.62 1729.55c-0.07,0.08 -39.13,47.69 -39.19,47.77 -8.13,9.73 -31.49,37.62 -39.72,47.25 -520.76,609.61 -1567.72,1681.02 -2106.6,2154.57l-381.31 357.85c-30.38,29.93 -57.06,52.51 -90.74,83.19l-1025.94 930.66c-80.46,68.12 -89.44,60.62 -171,133.36l-1591.31 1278.31c-540.51,405.83 -1125.49,766.26 -1698.11,1127.92l-462.44 276.66c-8.49,4.73 -19.81,10.45 -28.39,15.09l-193.98 110.36c-687.12,407.52 -2029.77,1063.37 -2795.98,1290.62l-873.75 299.99c-151.74,49.23 -282.6,70.09 -445.86,119.26l-934.79 195.41c-344.04,57.65 -555.02,156.27 -906.6,223.62 -476.96,91.37 -1118.91,35.67 -1661.27,77.33 -636.23,48.85 -805.62,177.32 -1585.01,59.86 -345.7,-52.1 -704.37,-29.29 -1056.51,-73.59 -113.57,-14.28 -375.38,-54.6 -497.65,-67.43l-1221.04 -213.42c-1288.06,-273.49 -2495.22,-594.89 -3700.92,-1080.91 -9.76,-3.93 -21.03,-8.74 -30.82,-12.65l-864.08 -353.17c-262.6,-119.06 -526.57,-203.76 -796.74,-333.59 -283.87,-136.41 -494.86,-247.91 -788.78,-385.04l-751.39 -378.96c-258.09,-143.68 -468.36,-253.6 -734.03,-396.34l-711.42 -418.96c-127.91,-73.76 -224.91,-124.51 -360.01,-205.18 -148.84,-88.88 -231.14,-153.66 -377.14,-231.54 -495.62,-264.4 -930.77,-592.75 -1415.94,-888.34 -255.5,-155.66 -423.63,-316.23 -667.78,-462.64 -695.75,-417.2 -1345.89,-951.49 -1995.53,-1439.24l-2291.79 -1708.24c-987.81,-747.37 -2026,-1428.59 -3059.99,-2113.86l-2127.71 -1306.95c-115.3,-69.25 -241.44,-146.2 -357.82,-207.38 -632.55,-332.48 -1217.56,-709.81 -1852.55,-1016.85 -485.05,-234.54 -990.65,-494.91 -1507.15,-753.55 -270.27,-135.34 -492.34,-235.61 -774.15,-356.19l-813.72 -360.08c-142.25,-57.63 -247.93,-117.02 -390.13,-175.03l-3378.46 -1229.65c-704.96,-239.07 -2445.35,-689.21 -3191.06,-808.21l-1992.03 -311.77c-370.8,-31.74 -2312.93,-248.71 -2633.22,-198.83 -295.11,45.96 -262.44,5.11 -500.59,-16.12l-3209.24 219.96c-636.99,131.99 -1338,170.25 -1955.1,348.74 -134.76,38.98 -299.74,92.22 -441.94,123.17 -901.43,196.14 -1769.04,504.68 -2639.3,794.94l-3480.99 1649.02c-235.67,117.6 -476.8,267.27 -714.88,415.5 -812.83,506.07 -1595.18,1065.33 -2376.37,1623.58 -89.97,64.3 -222.59,171.58 -313.76,251.47l-790.87 643.95c-49.51,41.51 -27.59,20.65 -71.03,59.41l-3811.53 3797.65c-402.4,422.88 -722.69,894.1 -1101.24,1333.8l-946.14 1228.03c-318.44,402.7 -1794.34,2445.34 -1831.72,2731l0 5788.56z"/>
   <path id="1" class="fil1" d="M3.81 22014.39l90229.26 0 0 -22010.58c-1317.27,0 -2037,1582.33 -2812.56,2579 -473.41,635.06 -2291.45,2969.21 -2821.22,3570.81l-1109.08 1325.95c-61.24,75.95 -58.83,88.33 -134.82,169.57 -115.73,123.74 -153.68,170.49 -263.71,301.55l-1531.62 1729.55c-0.07,0.08 -39.13,47.69 -39.19,47.77 -8.13,9.73 -31.49,37.62 -39.72,47.25 -520.76,609.61 -1567.72,1681.02 -2106.6,2154.57l-381.31 357.85c-30.38,29.93 -57.06,52.51 -90.74,83.19l-1025.94 930.66c-80.46,68.12 -89.44,60.62 -171,133.36l-1591.31 1278.31c-540.51,405.83 -1125.49,766.26 -1698.11,1127.92l-462.44 276.66c-8.49,4.73 -19.81,10.45 -28.39,15.09l-193.98 110.36c-687.12,407.52 -2029.77,1063.37 -2795.98,1290.62l-873.75 299.99c-151.74,49.23 -282.6,70.09 -445.86,119.26l-934.79 195.41c-344.04,57.65 -555.02,156.27 -906.6,223.62 -476.96,91.37 -1118.91,35.67 -1661.27,77.33 -636.23,48.85 -805.62,177.32 -1585.01,59.86 -345.7,-52.1 -704.37,-29.29 -1056.51,-73.59 -113.57,-14.28 -375.38,-54.6 -497.65,-67.43l-1221.04 -213.42c-1288.06,-273.49 -2495.22,-594.89 -3700.92,-1080.91 -9.76,-3.93 -21.03,-8.74 -30.82,-12.65l-864.08 -353.17c-262.6,-119.06 -526.57,-203.76 -796.74,-333.59 -283.87,-136.41 -494.86,-247.91 -788.78,-385.04l-751.39 -378.96c-258.09,-143.68 -468.36,-253.6 -734.03,-396.34l-711.42 -418.96c-127.91,-73.76 -224.91,-124.51 -360.01,-205.18 -148.84,-88.88 -231.14,-153.66 -377.14,-231.54 -495.62,-264.4 -930.77,-592.75 -1415.94,-888.34 -255.5,-155.66 -423.63,-316.23 -667.78,-462.64 -695.75,-417.2 -1345.89,-951.49 -1995.53,-1439.24l-2291.79 -1708.24c-987.81,-747.37 -2026,-1428.59 -3059.99,-2113.86l-2127.71 -1306.95c-115.3,-69.25 -241.44,-146.2 -357.82,-207.38 -632.55,-332.48 -1217.56,-709.81 -1852.55,-1016.85 -485.05,-234.54 -990.65,-494.91 -1507.15,-753.55 -270.27,-135.34 -492.34,-235.61 -774.15,-356.19l-813.72 -360.08c-142.25,-57.63 -247.93,-117.02 -390.13,-175.03l-3378.46 -1229.65c-704.96,-239.07 -2445.35,-689.21 -3191.06,-808.21l-1992.03 -311.77c-370.8,-31.74 -2312.93,-248.71 -2633.22,-198.83 -295.11,45.96 -262.44,5.11 -500.59,-16.12l-3209.24 219.96c-636.99,131.99 -1338,170.25 -1955.1,348.74 -134.76,38.98 -299.74,92.22 -441.94,123.17 -901.43,196.14 -1769.04,504.68 -2639.3,794.94l-3480.99 1649.02c-235.67,117.6 -476.8,267.27 -714.88,415.5 -812.83,506.07 -1595.18,1065.33 -2376.37,1623.58 -89.97,64.3 -222.59,171.58 -313.76,251.47l-790.87 643.95c-49.51,41.51 -27.59,20.65 -71.03,59.41l-3811.53 3797.65c-402.4,422.88 -722.69,894.1 -1101.24,1333.8l-946.14 1228.03c-318.44,402.7 -1794.34,2445.34 -1831.72,2731l0 5788.56z"/>
  </g>
 </g>
</svg>
